# xmcd
#
# Track frame offsets:
#	187
#	10707
#	54737
#	98755
#	143017
#	190317
#	199712
#	207455
#	215347
#	221990
#	226697
#	233830
#	243810
#	248207
#	254237
#
# Disc length: 3577 seconds
#
# Revision: 1
# Processed by: cddbd v1.5.1PL0 Copyright (c) Steve Scherf et al.
# Submitted via: CDex 1.50Beta5
#
DISCID=da0df70f
DTITLE=松村香澄 - GS美神 リポート3〜東京怪獣大戦争〜
DYEAR=1995
DGENRE=
TTITLE0=松村香澄/SINGLE FAKE
TTITLE1=鶴ひろみ/作戦開始*ドラマ
TTITLE2=鶴ひろみ/湾岸パニック*ドラマ
TTITLE3=鶴ひろみ/戦え!ボディコン女*ドラマ
TTITLE4=鶴ひろみ/史上最低の作戦*ドラマ
TTITLE5=それぞれの夜
TTITLE6=あこがれの生活
TTITLE7=素敵なマイペース
TTITLE8=想像は自由です
TTITLE9=ブリッジ・コレクションII
TTITLE10=GS横島!?
TTITLE11=スリルは容赦なく
TTITLE12=一件落着ということで
TTITLE13=まぶしい朝に深呼吸
TTITLE14=國府田マリ子/おキヌの子守唄
EXTD=
EXTT0=
EXTT1=
EXTT2=
EXTT3=
EXTT4=
EXTT5=
EXTT6=
EXTT7=
EXTT8=
EXTT9=
EXTT10=
EXTT11=
EXTT12=
EXTT13=
EXTT14=
PLAYORDER=
